<svg xmlns="http://www.w3.org/2000/svg" width="14" height="14"><path fill-rule="evenodd" opacity=".502" d="M5.913 3.987h2.2a.907.907 0 00.902-.908V.893a.909.909 0 00-.902-.909h-2.2a.91.91 0 00-.902.909v2.186c0 .501.407.908.902.908z"/><path fill-rule="evenodd" d="M13.108 13.987h-2.212a.907.907 0 01-.907-.902v-2.172c0-.495.409-.902.907-.902h2.212c.499 0 .907.407.907.902v2.172a.906.906 0 01-.907.902zm0-4.967h-2.212a.907.907 0 01-.907-.902V.979c0-.496.409-.903.907-.903h2.212c.499 0 .907.407.907.903v7.139a.906.906 0 01-.907.902zm-4.989 4.967H5.907A.907.907 0 015 13.085V5.946c0-.496.409-.903.907-.903h2.212c.499 0 .908.407.908.903v7.139a.907.907 0 01-.908.902zm-4.988-.065H.918a.908.908 0 01-.907-.902v-2.172c0-.497.409-.902.907-.902h2.213c.498 0 .907.405.907.902v2.171a.909.909 0 01-.907.903zm0-4.967H.918a.909.909 0 01-.907-.903V.913C.011.416.42.011.918.011h2.213c.498 0 .907.405.907.902v7.139a.909.909 0 01-.907.903z"/></svg>