<svg xmlns="http://www.w3.org/2000/svg" width="11" height="12"><path fill-rule="evenodd" d="M7.389 3.898a.52.52 0 000-.746.545.545 0 00-.76 0L2.277 7.419a1.64 1.64 0 000 2.346c.33.324.763.485 1.196.485.434 0 .867-.161 1.197-.485l2.079-2.039 3.5-3.432a2.483 2.483 0 000-3.558 2.604 2.604 0 00-3.628 0L1.816 5.447a.291.291 0 00-.024.027l-.788.772A3.315 3.315 0 000 8.631c0 .903.356 1.75 1.004 2.385A3.452 3.452 0 003.435 12c.921 0 1.785-.35 2.432-.984l3.962-3.885a.52.52 0 000-.746.545.545 0 00-.76 0L5.107 10.27a2.369 2.369 0 01-1.672.675 2.368 2.368 0 01-1.671-.675 2.28 2.28 0 01-.689-1.639c0-.621.245-1.203.689-1.639l3.962-3.885c.009-.008.016-.018.024-.027l1.631-1.599a1.513 1.513 0 012.108 0c.581.57.581 1.497 0 2.067L8.261 4.752 3.909 9.02a.626.626 0 01-.871 0 .598.598 0 010-.855l4.351-4.267z"/></svg>