<svg xmlns="http://www.w3.org/2000/svg" width="14" height="13"><path fill-rule="evenodd" opacity=".502" d="M14.003 3.102v-2.2A.907.907 0 0013.095 0H.909A.909.909 0 000 .902v2.2c0 .495.41.903.909.903h12.186c.5 0 .908-.408.908-.903z"/><path fill-rule="evenodd" d="M13.095 12.987h-.186a.91.91 0 01-.909-.902v-.216a.91.91 0 01.909-.902h.186c.5 0 .908.407.908.902v.216a.908.908 0 01-.908.902zm0-2.977h-.186A.91.91 0 0112 9.108v-.216a.91.91 0 01.909-.902h.186c.5 0 .908.407.908.902v.216a.908.908 0 01-.908.902zm0-2.977h-.186A.91.91 0 0112 6.131v-.216a.91.91 0 01.909-.902h.186c.5 0 .908.407.908.902v.216a.908.908 0 01-.908.902zm-3 5.954h-.186A.91.91 0 019 12.085v-.216a.91.91 0 01.909-.902h.186c.5 0 .908.407.908.902v.216a.908.908 0 01-.908.902zm0-2.977h-.186A.91.91 0 019 9.108v-.216a.91.91 0 01.909-.902h.186c.5 0 .908.407.908.902v.216a.908.908 0 01-.908.902zm0-2.977h-.186A.91.91 0 019 6.131v-.216a.91.91 0 01.909-.902h.186c.5 0 .908.407.908.902v.216a.908.908 0 01-.908.902zm-3 5.954h-.187A.91.91 0 016 12.085v-.216a.91.91 0 01.909-.902h.186c.5 0 .908.407.908.902v.216a.908.908 0 01-.908.902zm0-2.977h-.187A.91.91 0 016 9.108v-.216a.91.91 0 01.909-.902h.186c.5 0 .908.407.908.902v.216a.908.908 0 01-.908.902zm0-2.977h-.187A.91.91 0 016 6.131v-.216a.91.91 0 01.909-.902h.186c.5 0 .908.407.908.902v.216a.908.908 0 01-.908.902zm-3 5.954h-.186A.91.91 0 013 12.085v-.216a.91.91 0 01.909-.902h.186c.5 0 .908.407.908.902v.216a.908.908 0 01-.908.902zm0-2.977h-.186A.91.91 0 013 9.108v-.216a.91.91 0 01.909-.902h.186c.5 0 .908.407.908.902v.216a.908.908 0 01-.908.902zm0-2.977h-.186A.91.91 0 013 6.131v-.216a.91.91 0 01.909-.902h.186c.5 0 .908.407.908.902v.216a.908.908 0 01-.908.902zm-3 5.954H.909A.91.91 0 010 12.085v-.216a.91.91 0 01.909-.902h.186c.5 0 .908.407.908.902v.216a.908.908 0 01-.908.902zm0-2.977H.909A.91.91 0 010 9.108v-.216a.91.91 0 01.909-.902h.186c.5 0 .908.407.908.902v.216a.908.908 0 01-.908.902zm0-2.977H.909A.91.91 0 010 6.131v-.216a.91.91 0 01.909-.902h.186c.5 0 .908.407.908.902v.216a.908.908 0 01-.908.902z"/></svg>