<svg xmlns="http://www.w3.org/2000/svg" width="15" height="15"><path fill-rule="evenodd" opacity=".502" d="M9.034 9.095V6.878a.91.91 0 00-.908-.909H5.94a.912.912 0 00-.909.909v2.217c0 .499.41.91.909.91h2.186a.912.912 0 00.908-.91z"/><path fill-rule="evenodd" d="M13.126 14.979H10.94a.914.914 0 01-.909-.909v-2.218c0-.5.41-.909.909-.909h2.186a.91.91 0 01.908.909v2.218a.911.911 0 01-.908.909zm0-5.001H10.94a.913.913 0 01-.909-.909V6.851c0-.499.41-.909.909-.909h2.186a.91.91 0 01.908.909v2.218a.91.91 0 01-.908.909zm0-5H10.94a.914.914 0 01-.909-.909V1.851c0-.5.41-.909.909-.909h2.186a.91.91 0 01.908.909v2.218a.911.911 0 01-.908.909zm-5 10.001H5.94a.914.914 0 01-.909-.909v-2.218c0-.5.41-.909.909-.909h2.186a.91.91 0 01.908.909v2.218a.911.911 0 01-.908.909zm0-10.001H5.94a.914.914 0 01-.909-.909V1.851c0-.5.41-.909.909-.909h2.186a.91.91 0 01.908.909v2.218a.911.911 0 01-.908.909zm-5 10.001H.94a.914.914 0 01-.909-.909v-2.218c0-.5.41-.909.909-.909h2.186a.91.91 0 01.908.909v2.218a.911.911 0 01-.908.909zm0-5.001H.94a.913.913 0 01-.909-.909V6.851c0-.499.41-.909.909-.909h2.186a.91.91 0 01.908.909v2.218a.91.91 0 01-.908.909zm0-5H.94a.914.914 0 01-.909-.909V1.851c0-.5.41-.909.909-.909h2.186a.91.91 0 01.908.909v2.218a.911.911 0 01-.908.909z"/></svg>