<svg xmlns="http://www.w3.org/2000/svg" width="14" height="14"><path fill-rule="evenodd" d="M13.233 5.48l-1.097-.14a5.598 5.598 0 00-.332-.801l.677-.872a.868.868 0 00-.071-1.155l-.919-.918a.868.868 0 00-1.158-.074l-.871.677a5.452 5.452 0 00-.802-.332L8.521.77A.875.875 0 007.654 0H6.347a.874.874 0 00-.867.768l-.139 1.097c-.279.09-.548.201-.802.332l-.872-.677a.866.866 0 00-1.154.071l-.919.918a.867.867 0 00-.074 1.158l.677.872a5.377 5.377 0 00-.332.801L.77 5.48a.873.873 0 00-.77.867v1.306c0 .442.331.815.768.867l1.097.14c.09.278.202.546.332.801l-.677.872a.866.866 0 00.071 1.155l.919.918a.87.87 0 001.158.074l.871-.677c.255.13.523.242.802.331l.139 1.095c.053.44.425.771.867.771h1.307a.875.875 0 00.867-.768l.139-1.097c.278-.09.547-.202.802-.332l.872.677a.866.866 0 001.154-.071l.919-.919a.868.868 0 00.074-1.157l-.677-.872c.131-.255.242-.523.332-.801l1.094-.14a.873.873 0 00.77-.867V6.347a.872.872 0 00-.767-.867zM7 9.917A2.92 2.92 0 014.083 7 2.92 2.92 0 017 4.083 2.92 2.92 0 019.917 7 2.92 2.92 0 017 9.917z"/></svg>