<svg xmlns="http://www.w3.org/2000/svg" width="12" height="12"><path fill-rule="evenodd" d="M4.681 11.832l.881-1.194c.264.024.529.025.796.003l.85 1.151c.1.136.275.185.426.123l1.34-.552a.358.358 0 00.216-.387L8.982 9.56c.205-.173.393-.36.563-.563l1.464.234a.37.37 0 00.389-.221l.555-1.332a.37.37 0 00-.117-.432l-1.197-.874a4.61 4.61 0 00.003-.797l1.152-.849a.36.36 0 00.122-.426l-.552-1.341a.36.36 0 00-.387-.216l-1.416.208a4.678 4.678 0 00-.563-.563L9.207.966A.355.355 0 008.993.58L7.66.025a.355.355 0 00-.425.12l-.862 1.15a4.61 4.61 0 00-.797-.003L4.727.14a.36.36 0 00-.426-.123L2.96.569a.361.361 0 00-.216.388l.208 1.415a4.686 4.686 0 00-.563.564L.97 2.72a.37.37 0 00-.389.221L.026 4.273a.37.37 0 00.117.432l1.153.856a4.599 4.599 0 00-.003.796l-1.152.85a.36.36 0 00-.123.426l.553 1.34c.062.151.22.241.387.216l1.415-.208c.173.205.361.393.564.563l-.228 1.467a.355.355 0 00.214.386l1.333.555a.355.355 0 00.425-.12zM3.634 4.994a2.528 2.528 0 014.665 1.943 2.527 2.527 0 01-4.665-1.943z"/></svg>