<svg xmlns="http://www.w3.org/2000/svg" width="14" height="14"><path fill-rule="evenodd" d="M13.055 7.997h-3.051a2.399 2.399 0 000-1.988h3.051c.253 0 .491.103.669.29.178.188.276.438.276.704 0 .548-.424.994-.945.994zm0-5.006H5.004a2.399 2.399 0 000-1.988h8.051c.521 0 .945.446.945.994 0 .266-.098.516-.276.704a.918.918 0 01-.669.29zM7.001 5.007a1.998 1.998 0 11.003 3.995A1.998 1.998 0 017 5.007zM1.998 3.993a1.998 1.998 0 110-3.995 1.998 1.998 0 010 3.995zM.945 6.009h3.051a2.399 2.399 0 000 1.988H.945C.424 7.997 0 7.551 0 7.003c0-.266.098-.516.276-.704a.918.918 0 01.669-.29zm0 5h8.051a2.4 2.4 0 000 1.988H.945c-.521 0-.945-.446-.945-.994 0-.266.098-.516.276-.704a.918.918 0 01.669-.29zm11.056-1.002a1.998 1.998 0 11.003 3.99 1.998 1.998 0 01-.003-3.99z"/></svg>