<svg xmlns="http://www.w3.org/2000/svg" width="12" height="12"><path fill-rule="evenodd" d="M11.674 3.478l-1.009 1.001a.273.273 0 01-.384-.001L7.499 1.69a.274.274 0 01-.001-.385l.998-1.01a1.116 1.116 0 011.543-.001l1.635 1.639a1.092 1.092 0 010 1.545zm-3.475-.201a.274.274 0 01-.08.193L2.936 8.664a.27.27 0 01-.236.077.275.275 0 01-.2-.148l-.213-.426h-.716l-.373 1.306 1.316 1.319 1.304-.374v-.717l-.426-.214a.272.272 0 01-.071-.437l5.184-5.194a.28.28 0 01.385 0L9.892 4.86a.274.274 0 01-.001.387l-5.609 5.571c-.003.004-.008.005-.011.008-.013.012-.029.02-.045.029a.199.199 0 01-.048.025c-.005.002-.008.006-.013.007l-1.655.474-2.16.618a.271.271 0 01-.267-.069.274.274 0 01-.07-.268L.63 9.478l.473-1.659a.261.261 0 01.064-.108c.002-.003.002-.007.005-.01L6.731 2.08A.272.272 0 016.924 2c.073 0 .142.028.193.08l1.002 1.004c.051.051.08.12.08.193z"/></svg>