<svg xmlns="http://www.w3.org/2000/svg" width="16" height="16"><path fill-rule="evenodd" opacity=".502" d="M15.626 6.626L8.431 1.087a.81.81 0 00-.861 0L.374 6.626a.82.82 0 00-.259 1.126.81.81 0 001.12.26L8 2.743l6.764 5.269a.807.807 0 001.12-.261.819.819 0 00-.258-1.125z"/><path fill-rule="evenodd" d="M13.649 8.853v6.294a.815.815 0 01-.813.817H9.524c.018 0-.051-4.039-.057-4.039-.043 0-3.023.004-3.023-.014 0-1.819-.058 4.053 0 4.053h-3.28a.815.815 0 01-.813-.817V8.853c0-.282.144-.544.382-.693l4.836-4.058a.81.81 0 01.861 0l4.836 4.058a.818.818 0 01.383.693z"/></svg>