<svg xmlns="http://www.w3.org/2000/svg" width="28" height="28"><path fill-rule="evenodd" fill="#99A2B3" d="M15.5 12.5v-2l5.996-4.177L17.5 12.5h-2zm-5 3h2v2l-5.766 3.685L10.5 15.5zM6.734 6.323L12.5 10.5v2h-2L6.734 6.323zm14.762 14.862L15.5 17.5v-2h2l3.996 5.685z"/><path fill-rule="evenodd" fill="#DFE7EF" d="M27.604 13.982c-1.033-.373-10.732-2.736-10.859-2.782-.318-.894-2.722-10.835-2.761-10.945-.375 1.056-2.717 10.823-2.761 10.945-.325.117-9.72 2.371-10.859 2.782.131.047 10.697 2.724 10.859 2.782.49 1.379 2.369 9.839 2.761 10.944.386-1.088 2.734-10.867 2.761-10.944.325-.117 9.718-2.371 10.859-2.782z"/><path fill-rule="evenodd" stroke="#DFE7EF" fill="#FF6500" d="M14 10.453a3.547 3.547 0 110 7.094 3.547 3.547 0 010-7.094z"/><path fill-rule="evenodd" fill="#0B4DA0" d="M14 12l-1.8 3h3.6L14 12z"/></svg>