<svg xmlns="http://www.w3.org/2000/svg" xmlns:xlink="http://www.w3.org/1999/xlink" width="2px" height="10px">
    <path fill-rule="evenodd"  fill="rgb(138, 150, 173)"
          d="M1.000,6.000 C0.448,6.000 -0.000,5.552 -0.000,5.000 C-0.000,4.448 0.448,4.000 1.000,4.000 C1.552,4.000 2.000,4.448 2.000,5.000 C2.000,5.552 1.552,6.000 1.000,6.000 ZM1.000,2.000 C0.448,2.000 -0.000,1.552 -0.000,1.000 C-0.000,0.448 0.448,-0.000 1.000,-0.000 C1.552,-0.000 2.000,0.448 2.000,1.000 C2.000,1.552 1.552,2.000 1.000,2.000 ZM1.000,8.000 C1.552,8.000 2.000,8.448 2.000,9.000 C2.000,9.552 1.552,10.000 1.000,10.000 C0.448,10.000 -0.000,9.552 -0.000,9.000 C-0.000,8.448 0.448,8.000 1.000,8.000 Z"/>
</svg>