<svg xmlns="http://www.w3.org/2000/svg" xmlns:xlink="http://www.w3.org/1999/xlink" width="11px" height="14px">
    <path fill-rule="evenodd" d="M10.000,2.000 L1.000,2.000 C0.302,2.000 0.002,1.005 -0.000,1.000 C-0.000,0.951 0.468,-0.000 1.000,-0.000 L10.000,-0.000 C10.518,-0.000 11.000,0.412 11.000,1.000 C11.000,1.531 10.730,2.000 10.000,2.000 ZM7.175,7.695 C6.989,7.954 7.037,7.953 7.037,11.928 C7.037,12.519 6.689,12.629 4.948,13.893 C4.541,14.185 3.962,13.906 3.962,13.418 C3.962,7.963 4.021,7.969 3.825,7.695 L-0.000,3.000 L11.000,3.000 L7.175,7.695 Z"/>
</svg>