<svg xmlns="http://www.w3.org/2000/svg" xmlns:xlink="http://www.w3.org/1999/xlink" width="14px" height="14px">
    <path fill-rule="evenodd"  opacity="0.502"
          d="M5.913,3.987 L8.113,3.987 C8.609,3.987 9.015,3.580 9.015,3.079 L9.015,0.893 C9.015,0.394 8.609,-0.016 8.113,-0.016 L5.913,-0.016 C5.418,-0.016 5.011,0.394 5.011,0.893 L5.011,3.079 C5.011,3.580 5.418,3.987 5.913,3.987 Z"/>
    <path fill-rule="evenodd"
          d="M13.108,13.987 L10.896,13.987 C10.398,13.987 9.989,13.582 9.989,13.085 L9.989,10.913 C9.989,10.418 10.398,10.011 10.896,10.011 L13.108,10.011 C13.607,10.011 14.015,10.418 14.015,10.913 L14.015,13.085 C14.015,13.582 13.607,13.987 13.108,13.987 ZM13.108,9.020 L10.896,9.020 C10.398,9.020 9.989,8.615 9.989,8.118 L9.989,0.979 C9.989,0.483 10.398,0.076 10.896,0.076 L13.108,0.076 C13.607,0.076 14.015,0.483 14.015,0.979 L14.015,8.118 C14.015,8.615 13.607,9.020 13.108,9.020 ZM8.119,13.987 L5.907,13.987 C5.409,13.987 5.000,13.582 5.000,13.085 L5.000,5.946 C5.000,5.450 5.409,5.043 5.907,5.043 L8.119,5.043 C8.618,5.043 9.027,5.450 9.027,5.946 L9.027,13.085 C9.027,13.582 8.618,13.987 8.119,13.987 ZM3.131,13.922 L0.918,13.922 C0.420,13.922 0.011,13.515 0.011,13.020 L0.011,10.848 C0.011,10.351 0.420,9.946 0.918,9.946 L3.131,9.946 C3.629,9.946 4.038,10.351 4.038,10.848 L4.038,13.019 C4.038,13.515 3.629,13.922 3.131,13.922 ZM3.131,8.955 L0.918,8.955 C0.420,8.955 0.011,8.548 0.011,8.052 L0.011,0.913 C0.011,0.416 0.420,0.011 0.918,0.011 L3.131,0.011 C3.629,0.011 4.038,0.416 4.038,0.913 L4.038,8.052 C4.038,8.548 3.629,8.955 3.131,8.955 Z"/>
</svg>