<svg xmlns="http://www.w3.org/2000/svg" xmlns:xlink="http://www.w3.org/1999/xlink" width="13px" height="12px">
    <path fill-rule="evenodd" d="M12.000,12.000 L1.000,12.000 C0.172,12.000 -0.000,11.828 -0.000,11.000 L-0.000,1.000 C-0.000,0.172 0.172,-0.000 1.000,-0.000 L12.000,-0.000 C12.828,-0.000 13.000,0.172 13.000,1.000 L13.000,11.000 C13.000,11.828 12.828,12.000 12.000,12.000 ZM5.000,11.000 L8.000,11.000 L8.000,9.000 L5.000,9.000 L5.000,11.000 ZM5.000,8.000 L8.000,8.000 L8.000,6.000 L5.000,6.000 L5.000,8.000 ZM4.000,3.000 L2.000,3.000 L1.000,3.000 L1.000,5.000 L4.000,5.000 L4.000,3.000 ZM4.000,6.000 L1.000,6.000 L1.000,8.000 L4.000,8.000 L4.000,6.000 ZM4.000,9.000 L1.000,9.000 L0.895,10.511 C0.895,10.787 1.120,11.011 1.396,11.011 L4.000,11.000 L4.000,9.000 ZM5.000,5.000 L8.000,5.000 L8.000,3.000 L5.000,3.000 L5.000,5.000 ZM12.000,3.000 L11.000,3.000 L9.000,3.000 L9.000,5.000 L12.000,5.000 L12.000,3.000 ZM12.000,6.000 L9.000,6.000 L9.000,8.000 L12.000,8.000 L12.000,6.000 ZM9.000,9.000 L9.000,11.000 L11.405,11.011 C11.681,11.011 11.906,10.787 11.906,10.511 L12.000,9.000 L9.000,9.000 Z"/>
</svg>