<svg xmlns="http://www.w3.org/2000/svg" xmlns:xlink="http://www.w3.org/1999/xlink" width="12px" height="12px">
    <path fill-rule="evenodd" d="M11.674,3.478 L10.665,4.479 C10.612,4.531 10.543,4.558 10.474,4.558 C10.404,4.558 10.334,4.531 10.281,4.478 L7.499,1.690 C7.393,1.584 7.393,1.412 7.498,1.305 L8.496,0.295 C8.910,-0.119 9.627,-0.118 10.039,0.294 L11.674,1.933 C11.879,2.139 11.993,2.414 11.993,2.705 C11.993,2.997 11.879,3.271 11.674,3.478 ZM8.199,3.277 C8.199,3.349 8.170,3.419 8.119,3.470 L2.936,8.664 C2.885,8.716 2.815,8.744 2.743,8.744 C2.729,8.744 2.715,8.743 2.700,8.741 C2.613,8.726 2.539,8.671 2.500,8.593 L2.287,8.167 L1.571,8.167 L1.198,9.473 L2.514,10.792 L3.818,10.418 L3.818,9.701 L3.392,9.487 C3.314,9.448 3.259,9.374 3.245,9.287 C3.231,9.200 3.259,9.112 3.321,9.050 L8.505,3.856 C8.607,3.754 8.788,3.754 8.890,3.856 L9.892,4.860 C9.944,4.912 9.972,4.982 9.972,5.054 C9.972,5.127 9.943,5.196 9.891,5.247 L4.282,10.818 C4.279,10.822 4.274,10.823 4.271,10.826 C4.258,10.838 4.242,10.846 4.226,10.855 C4.211,10.865 4.196,10.874 4.178,10.880 C4.173,10.882 4.170,10.886 4.165,10.887 L2.510,11.361 L0.350,11.979 C0.325,11.986 0.300,11.990 0.275,11.990 C0.204,11.990 0.135,11.962 0.083,11.910 C0.013,11.840 -0.014,11.737 0.013,11.642 L0.630,9.478 L1.103,7.819 C1.115,7.776 1.139,7.741 1.167,7.711 C1.169,7.708 1.169,7.704 1.172,7.701 L6.731,2.080 C6.782,2.029 6.851,2.000 6.924,2.000 L6.924,2.000 C6.997,2.000 7.066,2.028 7.117,2.080 L8.119,3.084 C8.170,3.135 8.199,3.204 8.199,3.277 Z"/>
</svg>