<svg xmlns="http://www.w3.org/2000/svg" xmlns:xlink="http://www.w3.org/1999/xlink" width="14px" height="14px">
    <path fill-rule="evenodd" d="M13.055,7.997 L10.004,7.997 C10.141,7.695 10.219,7.359 10.219,7.003 C10.219,6.647 10.141,6.311 10.004,6.009 L13.055,6.009 C13.308,6.009 13.546,6.112 13.724,6.299 C13.902,6.487 14.000,6.737 14.000,7.003 C14.000,7.551 13.576,7.997 13.055,7.997 ZM13.055,2.991 L5.004,2.991 C5.141,2.689 5.219,2.353 5.219,1.997 C5.219,1.641 5.141,1.305 5.004,1.003 L13.055,1.003 C13.576,1.003 14.000,1.449 14.000,1.997 C14.000,2.263 13.902,2.513 13.724,2.701 C13.546,2.888 13.308,2.991 13.055,2.991 ZM7.001,5.007 C8.105,5.007 9.000,5.901 9.000,7.003 C9.000,8.106 8.105,9.000 7.001,9.000 C5.898,9.000 5.003,8.106 5.003,7.003 C5.003,5.901 5.898,5.007 7.001,5.007 ZM1.998,3.993 C0.895,3.993 -0.000,3.099 -0.000,1.996 C-0.000,0.894 0.895,-0.000 1.998,-0.000 C3.102,-0.000 3.997,0.894 3.997,1.996 C3.997,3.099 3.102,3.993 1.998,3.993 ZM0.945,6.009 L3.996,6.009 C3.859,6.311 3.781,6.647 3.781,7.003 C3.781,7.359 3.859,7.695 3.996,7.997 L0.945,7.997 C0.424,7.997 -0.000,7.551 -0.000,7.003 C-0.000,6.737 0.098,6.487 0.276,6.299 C0.454,6.112 0.692,6.009 0.945,6.009 ZM0.945,11.009 L8.996,11.009 C8.859,11.311 8.780,11.647 8.780,12.003 C8.780,12.359 8.859,12.695 8.996,12.997 L0.945,12.997 C0.424,12.997 -0.000,12.551 -0.000,12.003 C-0.000,11.737 0.098,11.487 0.276,11.299 C0.454,11.112 0.692,11.009 0.945,11.009 ZM12.001,10.007 C13.105,10.007 14.000,10.901 14.000,12.004 C14.000,13.106 13.105,14.000 12.001,14.000 C10.898,14.000 10.003,13.106 10.003,12.004 C10.003,10.901 10.898,10.007 12.001,10.007 Z"/>
</svg>