<svg xmlns="http://www.w3.org/2000/svg" xmlns:xlink="http://www.w3.org/1999/xlink" width="11px" height="12px">
    <path fill-rule="evenodd" d="M7.389,3.898 C7.599,3.692 7.599,3.358 7.389,3.152 C7.180,2.946 6.839,2.946 6.629,3.152 L2.277,7.419 C1.618,8.066 1.618,9.119 2.277,9.765 C2.607,10.089 3.040,10.250 3.473,10.250 C3.907,10.250 4.340,10.089 4.670,9.765 L6.749,7.726 L6.749,7.726 L10.249,4.294 C11.250,3.313 11.250,1.717 10.249,0.736 C9.249,-0.245 7.621,-0.245 6.621,0.736 L1.816,5.447 C1.807,5.456 1.799,5.465 1.792,5.474 L1.004,6.246 C0.356,6.881 -0.000,7.728 -0.000,8.631 C-0.000,9.534 0.356,10.381 1.004,11.016 C1.651,11.650 2.515,12.000 3.435,12.000 C4.356,12.000 5.220,11.650 5.867,11.016 L9.829,7.131 C10.039,6.925 10.039,6.591 9.829,6.385 C9.619,6.179 9.279,6.179 9.069,6.385 L5.107,10.270 C4.663,10.706 4.069,10.945 3.435,10.945 C2.802,10.945 2.208,10.706 1.764,10.270 C1.320,9.834 1.075,9.252 1.075,8.631 C1.075,8.010 1.320,7.428 1.764,6.992 L5.726,3.107 C5.735,3.099 5.742,3.089 5.750,3.080 L7.381,1.481 C7.962,0.911 8.908,0.911 9.489,1.481 C10.070,2.051 10.070,2.978 9.489,3.548 L8.261,4.752 C8.261,4.752 8.261,4.752 8.261,4.752 L3.909,9.020 C3.669,9.255 3.278,9.255 3.038,9.020 C2.798,8.784 2.798,8.401 3.038,8.165 L7.389,3.898 Z"/>
</svg>