<svg xmlns="http://www.w3.org/2000/svg" xmlns:xlink="http://www.w3.org/1999/xlink" width="12px" height="12px">
    <path fill-rule="evenodd" d="M4.681,11.832 L5.562,10.638 C5.826,10.662 6.091,10.663 6.358,10.641 L7.208,11.792 C7.308,11.928 7.483,11.977 7.634,11.915 L8.974,11.363 C9.125,11.301 9.215,11.143 9.190,10.976 L8.982,9.560 C9.187,9.387 9.375,9.200 9.545,8.997 L11.009,9.231 C11.172,9.252 11.334,9.163 11.398,9.010 L11.953,7.678 C12.017,7.524 11.966,7.347 11.836,7.246 L10.639,6.372 C10.663,6.108 10.664,5.842 10.642,5.575 L11.794,4.726 C11.929,4.626 11.978,4.451 11.916,4.300 L11.364,2.959 C11.302,2.808 11.144,2.719 10.977,2.743 L9.561,2.951 C9.388,2.746 9.201,2.559 8.998,2.388 L9.207,0.966 C9.235,0.806 9.146,0.644 8.993,0.580 L7.660,0.025 C7.507,-0.039 7.329,0.012 7.235,0.145 L6.373,1.295 C6.109,1.271 5.843,1.270 5.576,1.292 L4.727,0.140 C4.627,0.005 4.452,-0.045 4.301,0.017 L2.960,0.569 C2.809,0.632 2.720,0.790 2.744,0.957 L2.952,2.372 C2.747,2.545 2.560,2.733 2.389,2.936 L0.970,2.720 C0.807,2.699 0.645,2.788 0.581,2.941 L0.026,4.273 C-0.038,4.427 0.013,4.604 0.143,4.705 L1.296,5.561 C1.272,5.825 1.271,6.090 1.293,6.357 L0.141,7.207 C0.006,7.307 -0.044,7.482 0.018,7.633 L0.571,8.973 C0.633,9.124 0.791,9.214 0.958,9.189 L2.373,8.981 C2.546,9.186 2.734,9.374 2.937,9.544 L2.709,11.011 C2.681,11.171 2.770,11.333 2.923,11.397 L4.256,11.952 C4.409,12.016 4.587,11.965 4.681,11.832 ZM3.634,4.994 C4.171,3.706 5.651,3.097 6.938,3.633 C8.225,4.169 8.835,5.649 8.299,6.937 C7.763,8.224 6.283,8.834 4.995,8.297 C3.708,7.761 3.098,6.281 3.634,4.994 Z"/>
</svg>