<svg xmlns="http://www.w3.org/2000/svg" xmlns:xlink="http://www.w3.org/1999/xlink" width="16px" height="16px">
    <path fill-rule="evenodd"  opacity="0.502"
          d="M15.626,6.626 L8.431,1.087 C8.168,0.922 7.833,0.922 7.570,1.087 L0.374,6.626 C-0.007,6.865 -0.122,7.369 0.115,7.752 C0.353,8.135 0.853,8.252 1.235,8.012 L8.000,2.743 L14.764,8.012 C14.898,8.096 15.047,8.136 15.194,8.136 C15.465,8.136 15.730,8.000 15.884,7.751 C16.122,7.368 16.006,6.865 15.626,6.626 Z"/>
    <path fill-rule="evenodd"
          d="M13.649,8.853 L13.649,15.147 C13.649,15.598 13.285,15.964 12.836,15.964 C12.836,15.964 7.708,15.964 9.524,15.964 C9.542,15.964 9.473,11.925 9.467,11.925 C9.424,11.925 6.444,11.929 6.444,11.911 C6.444,10.092 6.386,15.964 6.444,15.964 C6.465,15.964 3.164,15.964 3.164,15.964 C2.715,15.964 2.351,15.598 2.351,15.147 L2.351,8.853 C2.351,8.571 2.495,8.309 2.733,8.160 L7.569,4.102 C7.832,3.937 8.167,3.937 8.430,4.102 L13.266,8.160 C13.504,8.309 13.649,8.571 13.649,8.853 Z"/>
</svg>