<svg xmlns="http://www.w3.org/2000/svg" xmlns:xlink="http://www.w3.org/1999/xlink" width="9px" height="12px">
    <path fill-rule="evenodd" d="M7.953,12.000 L6.036,12.000 C5.014,12.000 4.989,10.901 4.989,10.882 L4.989,1.118 C4.989,1.099 5.014,-0.000 6.036,-0.000 L7.953,-0.000 C8.975,-0.000 9.000,1.045 9.000,1.118 L9.000,10.882 C9.000,10.901 8.975,12.000 7.953,12.000 ZM2.964,12.000 L1.047,12.000 C0.026,12.000 -0.000,10.901 -0.000,10.882 L-0.000,1.118 C-0.000,1.125 0.026,-0.000 1.047,-0.000 L2.964,-0.000 C3.986,-0.000 4.011,1.125 4.011,1.118 L4.011,10.882 C4.011,10.928 3.986,12.000 2.964,12.000 Z"/>
</svg>