<svg xmlns="http://www.w3.org/2000/svg" xmlns:xlink="http://www.w3.org/1999/xlink" width="14px" height="14px">
    <path fill-rule="evenodd" d="M13.233,5.480 L12.136,5.340 C12.045,5.062 11.934,4.794 11.804,4.539 L12.481,3.667 C12.755,3.314 12.723,2.816 12.410,2.512 L11.491,1.594 C11.185,1.277 10.687,1.246 10.333,1.520 L9.462,2.197 C9.207,2.067 8.939,1.955 8.660,1.865 L8.521,0.770 C8.468,0.331 8.095,-0.000 7.654,-0.000 L6.347,-0.000 C5.905,-0.000 5.533,0.331 5.480,0.768 L5.341,1.865 C5.062,1.955 4.793,2.066 4.539,2.197 L3.667,1.520 C3.315,1.246 2.816,1.277 2.513,1.591 L1.594,2.509 C1.277,2.816 1.245,3.314 1.520,3.667 L2.197,4.539 C2.066,4.794 1.955,5.062 1.865,5.340 L0.770,5.480 C0.331,5.532 -0.000,5.905 -0.000,6.347 L-0.000,7.653 C-0.000,8.095 0.331,8.468 0.768,8.520 L1.865,8.660 C1.955,8.938 2.067,9.206 2.197,9.461 L1.520,10.333 C1.245,10.686 1.277,11.184 1.591,11.488 L2.510,12.406 C2.816,12.722 3.314,12.753 3.668,12.480 L4.539,11.803 C4.794,11.933 5.062,12.045 5.341,12.134 L5.480,13.229 C5.533,13.669 5.905,14.000 6.347,14.000 L7.654,14.000 C8.095,14.000 8.468,13.669 8.521,13.232 L8.660,12.135 C8.938,12.045 9.207,11.933 9.462,11.803 L10.334,12.480 C10.687,12.755 11.185,12.722 11.488,12.409 L12.407,11.490 C12.723,11.184 12.755,10.686 12.481,10.333 L11.804,9.461 C11.935,9.206 12.046,8.938 12.136,8.660 L13.230,8.520 C13.669,8.468 14.000,8.095 14.000,7.653 L14.000,6.347 C14.001,5.905 13.670,5.532 13.233,5.480 L13.233,5.480 ZM7.000,9.917 C5.392,9.917 4.083,8.608 4.083,7.000 C4.083,5.392 5.392,4.083 7.000,4.083 C8.609,4.083 9.917,5.392 9.917,7.000 C9.917,8.608 8.609,9.917 7.000,9.917 L7.000,9.917 Z"/>
</svg>