<svg xmlns="http://www.w3.org/2000/svg" xmlns:xlink="http://www.w3.org/1999/xlink" width="15px" height="15px">
    <path fill-rule="evenodd"  opacity="0.502"
          d="M9.034,9.095 L9.034,6.878 C9.034,6.378 8.627,5.969 8.126,5.969 L5.940,5.969 C5.441,5.969 5.031,6.378 5.031,6.878 L5.031,9.095 C5.031,9.594 5.441,10.005 5.940,10.005 L8.126,10.005 C8.627,10.005 9.034,9.594 9.034,9.095 Z"/>
    <path fill-rule="evenodd"
          d="M13.126,14.979 L10.940,14.979 C10.441,14.979 10.031,14.568 10.031,14.070 L10.031,11.852 C10.031,11.352 10.441,10.943 10.940,10.943 L13.126,10.943 C13.627,10.943 14.034,11.352 14.034,11.852 L14.034,14.070 C14.034,14.568 13.627,14.979 13.126,14.979 ZM13.126,9.978 L10.940,9.978 C10.441,9.978 10.031,9.568 10.031,9.069 L10.031,6.851 C10.031,6.352 10.441,5.942 10.940,5.942 L13.126,5.942 C13.627,5.942 14.034,6.352 14.034,6.851 L14.034,9.069 C14.034,9.568 13.627,9.978 13.126,9.978 ZM13.126,4.978 L10.940,4.978 C10.441,4.978 10.031,4.567 10.031,4.069 L10.031,1.851 C10.031,1.351 10.441,0.942 10.940,0.942 L13.126,0.942 C13.627,0.942 14.034,1.351 14.034,1.851 L14.034,4.069 C14.034,4.567 13.627,4.978 13.126,4.978 ZM8.126,14.979 L5.940,14.979 C5.441,14.979 5.031,14.568 5.031,14.070 L5.031,11.852 C5.031,11.352 5.441,10.943 5.940,10.943 L8.126,10.943 C8.627,10.943 9.034,11.352 9.034,11.852 L9.034,14.070 C9.034,14.568 8.627,14.979 8.126,14.979 ZM8.126,4.978 L5.940,4.978 C5.441,4.978 5.031,4.567 5.031,4.069 L5.031,1.851 C5.031,1.351 5.441,0.942 5.940,0.942 L8.126,0.942 C8.627,0.942 9.034,1.351 9.034,1.851 L9.034,4.069 C9.034,4.567 8.627,4.978 8.126,4.978 ZM3.126,14.979 L0.940,14.979 C0.441,14.979 0.031,14.568 0.031,14.070 L0.031,11.852 C0.031,11.352 0.441,10.943 0.940,10.943 L3.126,10.943 C3.627,10.943 4.034,11.352 4.034,11.852 L4.034,14.070 C4.034,14.568 3.627,14.979 3.126,14.979 ZM3.126,9.978 L0.940,9.978 C0.441,9.978 0.031,9.568 0.031,9.069 L0.031,6.851 C0.031,6.352 0.441,5.942 0.940,5.942 L3.126,5.942 C3.627,5.942 4.034,6.352 4.034,6.851 L4.034,9.069 C4.034,9.568 3.627,9.978 3.126,9.978 ZM3.126,4.978 L0.940,4.978 C0.441,4.978 0.031,4.567 0.031,4.069 L0.031,1.851 C0.031,1.351 0.441,0.942 0.940,0.942 L3.126,0.942 C3.627,0.942 4.034,1.351 4.034,1.851 L4.034,4.069 C4.034,4.567 3.627,4.978 3.126,4.978 Z"/>
</svg>