<svg xmlns="http://www.w3.org/2000/svg" xmlns:xlink="http://www.w3.org/1999/xlink" width="12px" height="8px">
    <path fill-rule="evenodd" d="M11.947,4.250 C11.847,4.400 9.752,8.000 6.011,8.000 C2.270,8.000 0.175,4.400 0.075,4.250 C-0.025,4.100 -0.025,3.900 0.075,3.750 C0.175,3.600 2.270,-0.000 6.011,-0.000 C9.752,-0.000 11.847,3.600 11.947,3.750 C11.997,3.900 11.997,4.100 11.947,4.250 ZM6.011,0.675 C4.153,0.675 2.694,2.138 2.694,4.000 C2.694,5.862 4.153,7.325 6.011,7.325 C7.868,7.325 9.328,5.862 9.328,4.000 C9.328,2.138 7.868,0.675 6.011,0.675 ZM6.011,5.500 C5.163,5.500 4.514,4.850 4.514,4.000 C4.514,3.150 5.163,2.500 6.011,2.500 C6.859,2.500 7.507,3.150 7.507,4.000 C7.507,4.850 6.859,5.500 6.011,5.500 ZM6.510,3.000 C6.210,3.000 6.011,3.200 6.011,3.500 C6.011,3.800 6.210,4.000 6.510,4.000 C6.809,4.000 7.009,3.800 7.009,3.500 C7.009,3.200 6.809,3.000 6.510,3.000 Z"/>
</svg>