<svg xmlns="http://www.w3.org/2000/svg" xmlns:xlink="http://www.w3.org/1999/xlink" width="14px" height="14px">
    <path fill-rule="evenodd" d="M7.783,11.992 C6.434,11.992 5.190,11.530 4.203,10.757 L1.242,13.775 C1.097,13.919 0.907,13.991 0.718,13.991 C0.528,13.991 0.339,13.919 0.194,13.775 C-0.095,13.487 -0.095,13.019 0.194,12.731 L3.219,9.776 C2.443,8.792 1.980,7.553 1.980,6.208 C1.980,3.019 4.423,0.011 7.827,0.011 C11.231,0.011 14.000,2.772 14.000,6.164 C14.000,9.557 10.983,11.992 7.783,11.992 ZM7.917,2.094 C5.707,2.094 3.916,3.885 3.916,6.094 C3.916,8.303 5.707,10.094 7.917,10.094 C10.126,10.094 11.917,8.303 11.917,6.094 C11.917,3.885 10.126,2.094 7.917,2.094 Z"/>
</svg>