<svg xmlns="http://www.w3.org/2000/svg" xmlns:xlink="http://www.w3.org/1999/xlink" width="14px" height="13px">
    <path fill-rule="evenodd"  opacity="0.502"
          d="M14.003,3.102 L14.003,0.902 C14.003,0.406 13.595,0.000 13.095,0.000 L0.909,0.000 C0.410,0.000 0.000,0.406 0.000,0.902 L0.000,3.102 C0.000,3.597 0.410,4.005 0.909,4.005 L13.095,4.005 C13.595,4.005 14.003,3.597 14.003,3.102 Z"/>
    <path fill-rule="evenodd"
          d="M13.095,12.987 L12.909,12.987 C12.410,12.987 12.000,12.580 12.000,12.085 L12.000,11.869 C12.000,11.374 12.410,10.967 12.909,10.967 L13.095,10.967 C13.595,10.967 14.003,11.374 14.003,11.869 L14.003,12.085 C14.003,12.580 13.595,12.987 13.095,12.987 ZM13.095,10.010 L12.909,10.010 C12.410,10.010 12.000,9.603 12.000,9.108 L12.000,8.892 C12.000,8.397 12.410,7.990 12.909,7.990 L13.095,7.990 C13.595,7.990 14.003,8.397 14.003,8.892 L14.003,9.108 C14.003,9.603 13.595,10.010 13.095,10.010 ZM13.095,7.033 L12.909,7.033 C12.410,7.033 12.000,6.626 12.000,6.131 L12.000,5.915 C12.000,5.420 12.410,5.013 12.909,5.013 L13.095,5.013 C13.595,5.013 14.003,5.420 14.003,5.915 L14.003,6.131 C14.003,6.626 13.595,7.033 13.095,7.033 ZM10.095,12.987 L9.909,12.987 C9.410,12.987 9.000,12.580 9.000,12.085 L9.000,11.869 C9.000,11.374 9.410,10.967 9.909,10.967 L10.095,10.967 C10.595,10.967 11.003,11.374 11.003,11.869 L11.003,12.085 C11.003,12.580 10.595,12.987 10.095,12.987 ZM10.095,10.010 L9.909,10.010 C9.410,10.010 9.000,9.603 9.000,9.108 L9.000,8.892 C9.000,8.397 9.410,7.990 9.909,7.990 L10.095,7.990 C10.595,7.990 11.003,8.397 11.003,8.892 L11.003,9.108 C11.003,9.603 10.595,10.010 10.095,10.010 ZM10.095,7.033 L9.909,7.033 C9.410,7.033 9.000,6.626 9.000,6.131 L9.000,5.915 C9.000,5.420 9.410,5.013 9.909,5.013 L10.095,5.013 C10.595,5.013 11.003,5.420 11.003,5.915 L11.003,6.131 C11.003,6.626 10.595,7.033 10.095,7.033 ZM7.095,12.987 L6.908,12.987 C6.410,12.987 6.000,12.580 6.000,12.085 L6.000,11.869 C6.000,11.374 6.410,10.967 6.909,10.967 L7.095,10.967 C7.595,10.967 8.003,11.374 8.003,11.869 L8.003,12.085 C8.003,12.580 7.595,12.987 7.095,12.987 ZM7.095,10.010 L6.908,10.010 C6.410,10.010 6.000,9.603 6.000,9.108 L6.000,8.892 C6.000,8.397 6.410,7.990 6.909,7.990 L7.095,7.990 C7.595,7.990 8.003,8.397 8.003,8.892 L8.003,9.108 C8.003,9.603 7.595,10.010 7.095,10.010 ZM7.095,7.033 L6.908,7.033 C6.410,7.033 6.000,6.626 6.000,6.131 L6.000,5.915 C6.000,5.420 6.410,5.013 6.909,5.013 L7.095,5.013 C7.595,5.013 8.003,5.420 8.003,5.915 L8.003,6.131 C8.003,6.626 7.595,7.033 7.095,7.033 ZM4.095,12.987 L3.909,12.987 C3.410,12.987 3.000,12.580 3.000,12.085 L3.000,11.869 C3.000,11.374 3.410,10.967 3.909,10.967 L4.095,10.967 C4.595,10.967 5.003,11.374 5.003,11.869 L5.003,12.085 C5.003,12.580 4.595,12.987 4.095,12.987 ZM4.095,10.010 L3.909,10.010 C3.410,10.010 3.000,9.603 3.000,9.108 L3.000,8.892 C3.000,8.397 3.410,7.990 3.909,7.990 L4.095,7.990 C4.595,7.990 5.003,8.397 5.003,8.892 L5.003,9.108 C5.003,9.603 4.595,10.010 4.095,10.010 ZM4.095,7.033 L3.909,7.033 C3.410,7.033 3.000,6.626 3.000,6.131 L3.000,5.915 C3.000,5.420 3.410,5.013 3.909,5.013 L4.095,5.013 C4.595,5.013 5.003,5.420 5.003,5.915 L5.003,6.131 C5.003,6.626 4.595,7.033 4.095,7.033 ZM1.095,12.987 L0.909,12.987 C0.410,12.987 0.000,12.580 0.000,12.085 L0.000,11.869 C0.000,11.374 0.410,10.967 0.909,10.967 L1.095,10.967 C1.595,10.967 2.003,11.374 2.003,11.869 L2.003,12.085 C2.003,12.580 1.595,12.987 1.095,12.987 ZM1.095,10.010 L0.909,10.010 C0.410,10.010 0.000,9.603 0.000,9.108 L0.000,8.892 C0.000,8.397 0.410,7.990 0.909,7.990 L1.095,7.990 C1.595,7.990 2.003,8.397 2.003,8.892 L2.003,9.108 C2.003,9.603 1.595,10.010 1.095,10.010 ZM1.095,7.033 L0.909,7.033 C0.410,7.033 0.000,6.626 0.000,6.131 L0.000,5.915 C0.000,5.420 0.410,5.013 0.909,5.013 L1.095,5.013 C1.595,5.013 2.003,5.420 2.003,5.915 L2.003,6.131 C2.003,6.626 1.595,7.033 1.095,7.033 Z"/>
</svg>