<svg xmlns="http://www.w3.org/2000/svg" xmlns:xlink="http://www.w3.org/1999/xlink" width="28px" height="28px">
    <path fill-rule="evenodd"  fill="rgb(153, 162, 179)"
          d="M15.500,12.500 L15.500,10.500 L21.496,6.323 L17.500,12.500 L15.500,12.500 ZM10.500,15.500 L12.500,15.500 L12.500,17.500 L6.734,21.185 L10.500,15.500 ZM6.734,6.323 L12.500,10.500 L12.500,12.500 L10.500,12.500 L6.734,6.323 ZM21.496,21.185 L15.500,17.500 L15.500,15.500 L17.500,15.500 L21.496,21.185 Z"/>
    <path fill-rule="evenodd"  fill="rgb(223, 231, 239)"
          d="M27.604,13.982 C26.571,13.609 16.872,11.246 16.745,11.200 C16.427,10.306 14.023,0.365 13.984,0.255 C13.609,1.311 11.267,11.078 11.223,11.200 C10.898,11.317 1.503,13.571 0.364,13.982 C0.495,14.029 11.061,16.706 11.223,16.764 C11.713,18.143 13.592,26.603 13.984,27.708 C14.370,26.620 16.718,16.841 16.745,16.764 C17.070,16.647 26.463,14.393 27.604,13.982 L27.604,13.982 Z"/>
    <path fill-rule="evenodd"  stroke-width="1px" stroke="rgb(223, 231, 239)" fill="rgb(255, 101, 0)"
          d="M14.000,10.453 C15.959,10.453 17.547,12.041 17.547,14.000 C17.547,15.959 15.959,17.547 14.000,17.547 C12.041,17.547 10.453,15.959 10.453,14.000 C10.453,12.041 12.041,10.453 14.000,10.453 Z"/>
    <path fill-rule="evenodd"  fill="rgb(11, 77, 160)"
          d="M14.000,12.000 L12.200,15.000 L15.800,15.000 L14.000,12.000 Z"/>
</svg>